<?xml version="1.0" encoding="UTF-8" standalone="no"?>
<!-- Created with Inkscape (http://www.inkscape.org/) -->
<svg
   xmlns:dc="http://purl.org/dc/elements/1.1/"
   xmlns:cc="http://creativecommons.org/ns#"
   xmlns:rdf="http://www.w3.org/1999/02/22-rdf-syntax-ns#"
   xmlns:svg="http://www.w3.org/2000/svg"
   xmlns="http://www.w3.org/2000/svg"
   xmlns:sodipodi="http://sodipodi.sourceforge.net/DTD/sodipodi-0.dtd"
   xmlns:inkscape="http://www.inkscape.org/namespaces/inkscape"
   id="svg2"
   sodipodi:version="0.32"
   inkscape:version="0.46"
   width="1450"
   height="1100"
   version="1.0"
   sodipodi:docname="Rlogo-1.svg"
   inkscape:output_extension="org.inkscape.output.svg.inkscape">
  <metadata
     id="metadata7">
    <rdf:RDF>
      <cc:Work
         rdf:about="">
        <dc:format>image/svg+xml</dc:format>
        <dc:type
           rdf:resource="http://purl.org/dc/dcmitype/StillImage" />
      </cc:Work>
    </rdf:RDF>
  </metadata>
  <defs
     id="defs5">
    <inkscape:perspective
       sodipodi:type="inkscape:persp3d"
       inkscape:vp_x="0 : 526.18109 : 1"
       inkscape:vp_y="0 : 1000 : 0"
       inkscape:vp_z="744.09448 : 526.18109 : 1"
       inkscape:persp3d-origin="372.04724 : 350.78739 : 1"
       id="perspective9" />
    <filter
       inkscape:collect="always"
       id="filter3257"
       x="-0.45944777"
       width="1.9188955"
       y="-0.60563569"
       height="2.2112714">
      <feGaussianBlur
         inkscape:collect="always"
         stdDeviation="277.58303"
         id="feGaussianBlur3259" />
    </filter>
  </defs>
  <sodipodi:namedview
     inkscape:window-height="686"
     inkscape:window-width="868"
     inkscape:pageshadow="2"
     inkscape:pageopacity="0.0"
     guidetolerance="10.0"
     gridtolerance="10.0"
     objecttolerance="10.0"
     borderopacity="1.0"
     bordercolor="#666666"
     pagecolor="#ffffff"
     id="base"
     showgrid="false"
     showguides="true"
     inkscape:zoom="0.18689655"
     inkscape:cx="455.20013"
     inkscape:cy="619.8452"
     inkscape:window-x="85"
     inkscape:window-y="14"
     inkscape:current-layer="svg2" />
  <path
     id="path2400"
     d="M 0,592.80442 L 0,5.6084468e-07 L 692.89668,5.8342994e-07 L 1455.3506,5.3505541 L 1450,592.80442 L 1444.6494,1100.0001 L 735.70111,1105.3506 L 5.3505536,1100.0001 L 0,592.80442 z"
     style="opacity:0.05000005;fill:#fafbfb"
     sodipodi:nodetypes="ccccccccc" />
  <path
     id="path2398"
     d="M 661.5,1094.032 C 629.3688,1082.886 544.56894,1120.3653 557.90207,1062.0437 C 557.76804,1027.5355 557.63402,993.02729 557.5,958.5191 C 363.54931,925.84481 161.89903,839.07752 55.122734,665.34189 C -20.009716,545.69243 -6.8461767,383.14288 80.978568,273.5 C 209.99331,107.65504 422.31542,30.715455 625.61503,10.850908 C 865.74127,-9.993298 1125.3185,41.632309 1309.5576,205.11131 C 1414.007,296.15662 1476.2016,444.55917 1433.9661,581.33203 C 1400.346,696.86639 1309.664,785.33491 1210.0296,847.46432 C 1255.2181,929.65533 1306.5411,1008.5038 1352.7253,1090.0856 C 1261.9055,1096.0978 1168.0516,1091.7131 1075.9091,1093 C 1045.2486,1043.1691 1020.7842,989.3678 991.41703,938.61939 C 929.98713,953.63032 867.44505,963.61696 804.5,969.50879 C 803.61869,1010.9082 805.85918,1052.5176 802.30784,1093.75 C 755.54556,1096.2627 708.39256,1093.4381 661.5,1094.032 z M 605.22046,1041.5068 C 613.09591,964.09133 606.86843,884.30244 608.9552,805.94679 C 609.84708,646.60144 607.19135,487.14101 610.65368,327.87244 C 763.99339,324.32527 919.06665,328.26988 1071.4859,326.20072 C 1024.2819,309.57504 973.02265,320.64109 923.92508,317.25692 C 817.78976,316.43622 711.54982,318.27891 605.5,314.94743 C 575.4199,290.17517 608.20965,351.21616 597.53245,373.45243 C 597.79574,596.55156 597.52505,819.65294 598.46568,1042.75 L 601.12937,1043.8952 L 605.22047,1041.5068 L 605.22046,1041.5068 z M 748.52313,1039.9626 C 731.00505,1001.506 683.43641,1025.6922 650.16021,1020.3372 C 588.61871,1032.9006 770.19608,1031.0627 721.82701,1030.4071 C 733.05552,1027.6061 740.32721,1039.1723 748.52313,1039.9626 z M 1261.7772,1039.8317 C 1237.1808,1019.2363 1208.0099,1017.0645 1177.5485,1019.2086 C 1164.3093,1019.5023 1105.4297,1015.0304 1133.1923,1028.3269 C 1176.5709,1030.3269 1221.8252,1024.4013 1261.7772,1039.8317 z M 887.83575,851.97693 C 947.54992,864.36362 947.98085,824.19431 906.64589,792.60305 C 867.19289,762.69731 777.11401,759.05291 804.05942,831.45715 C 795.12175,871.23541 866.19781,845.54272 887.83575,851.97693 z M 558.24432,541.52777 C 558.32955,455.03701 558.41477,368.54624 558.5,282.05548 C 578.05396,271.76117 605.40494,280.2911 628.06674,277.5 C 774.55666,278.27168 921.29589,275.9563 1067.6298,278.65918 C 1165.148,288.26035 1261.8391,358.75905 1272.1632,461.30085 C 1287.7025,552.6676 1252.1744,658.70401 1163.1743,698.77321 C 1135.5873,716.10044 1064.2542,726.76557 1071.7609,732.05565 C 1126.1066,732.63685 1163.0577,813.59431 1212.0405,769.98564 C 1311.7885,718.96158 1408.8247,620.36957 1395.4462,499.71459 C 1377.8605,369.93456 1256.5533,287.04121 1143.097,243.30635 C 932.65994,166.02966 687.60834,172.53466 486.57461,274.68281 C 389.10185,325.2376 293.28926,419.80373 303.03641,538.33069 C 314.95362,666.8762 433.61612,751.55432 544,796.68666 C 575.61837,785.47641 548.94198,696.81898 558.11149,656.83533 C 558.16829,618.3995 558.20586,579.96354 558.24432,541.52777 z M 739,753.24695 C 759.99101,725.85396 792.29639,704.47408 827.82823,711.00881 C 844.74816,712.2369 930.95218,709.70675 869.05402,701.31301 C 821.07925,695.13594 726.70497,701.20277 739,753.24695 z M 276.77731,715.90601 C 229.08141,640.31434 205.46584,546.4863 232.55343,459.11643 C 258.1489,328.92494 363.61245,232.29012 478,175.21964 C 497.17291,156.32256 378.76071,209.11249 395.56843,200.35494 C 279.07804,254.67404 162.48788,356.84471 158.24352,494.45783 C 154.66172,581.8846 202.99096,670.85012 275.64144,717.57063 L 276.77732,715.906 L 276.77731,715.90601 z M 992,706.24695 C 1028.6418,647.92631 1106.9969,671.67699 1155.2731,631.01709 C 1191.387,622.91076 1213.8827,503.74943 1183.514,577.53991 C 1152.3356,643.04831 1073.9304,642.04701 1016.192,665.09781 C 1003.3237,664.62805 973.07239,720.04594 992,706.24695 z M 978.8429,643.03003 C 1049.9821,633.46046 1094.0603,549.94113 1067.3796,485.5 C 1071.0519,552.31067 1029.1776,619.77109 961.76528,634.9166 C 905.95927,639.06804 847.64714,631.26475 793,640.4905 C 853.45912,648.46658 917.34644,644.93851 978.84292,643.03 L 978.8429,643.03003 z M 968.5,593.09235 C 1038.3215,586.31137 1044.9415,466.23651 972.55589,457.79225 C 920.38993,461.80341 836.0062,439.74798 804.29577,471.25303 C 809.48266,523.65978 775.60556,621.04726 862.88251,594.65371 C 898.02293,593.99669 933.52148,596.70603 968.5,593.09235 z M 72.802208,477.49167 C 86.512963,347.77167 183.38321,247.21345 289.30716,180.99842 C 296.03398,169.91922 223.34762,211.20988 204.30974,229.73939 C 125.9318,286.72945 56.919715,382.00172 70.75,481.81501 L 72.802205,477.49168 L 72.802208,477.49167 z M 739,434.24692 C 759.99103,406.85129 792.29639,385.48611 827.82823,391.98689 C 881.4214,391.36404 939.20203,393.79501 989.63631,387.52482 C 948.31519,375.02597 903.69703,384.86377 860.97316,381.9728 C 818.81613,383.48207 740.62602,369.80998 739,434.24692 z"
     style="opacity:1;fill:#8d97a5" />
  <path
     id="path2396"
     d="M 666,1092.9878 C 635.9663,1080.8907 554.32591,1118.0684 559.93025,1068.3484 C 559.78684,1031.4521 559.64342,994.5559 559.5,957.65967 C 365.90099,925.68458 163.09536,838.59844 56.756027,665.31476 C 14.481118,591.95551 -9.1291997,497.32609 21.561871,416 C 23.689644,454.59842 28.276218,489.25681 45.112113,521.53856 C 58.488321,551.20914 97.197724,615.06987 79.374879,541.5 C 60.640531,414.19756 136.58493,293.43945 237.66914,222.41486 C 337.55165,151.16581 457.5335,102.18975 580.81007,96.616144 C 626.66267,126.08444 505.58509,139.30278 480.03146,154.64521 C 347.98549,200.11265 212.12812,279.26759 154.73175,412.94595 C 108.45065,520.09372 160.00773,640.65369 239.137,716.96931 C 287.48715,767.52877 339.40982,817.21219 407.86077,838.52728 C 452.19294,848.89185 527.03609,892.16899 557.68789,875.82189 C 532.89289,874.34952 478.41445,844.06686 536,862.98982 C 598.69364,873.96851 498.78945,837.29902 478.5,832.22861 C 411.23351,816.68913 384.56454,754.14001 340.00307,711.53669 C 261.38594,644.44919 212.51206,531.45015 252.26283,430.56117 C 296.69243,310.60747 415.54477,247.98621 522.10631,192.26873 C 631.7597,123.30713 767.41986,114.04369 893.84405,115.72317 C 1042.7413,122.27389 1190.9301,175.78248 1305,272.6198 C 1178.1919,157.82051 1006.4519,111.43232 841.60488,84.096993 C 790.18716,82.631749 734.23394,63.918518 689.38776,72.80624 C 626.9939,66.624176 561.67506,76.982794 498.84527,84.450891 C 402.38807,97.969298 305.82061,119.23238 220.07278,167.19728 C 192.54116,177.8076 119.44445,235.382 178.05395,180.86839 C 360.05638,35.126803 605.99969,-7.3888247 833.59993,12.967889 C 1040.3491,34.713521 1259.2527,115.45065 1382.9909,291.32609 C 1463.6841,403.98201 1467.0362,564.17108 1388.0655,678.7083 C 1343.395,749.51859 1276.9751,802.96949 1208,848.52525 C 1253.702,929.99929 1306.3218,1008.5516 1349.6217,1090.7118 C 1258.0849,1090.8013 1164.866,1095.2366 1074.3748,1088.7719 C 1043.5519,1041.1868 1023.9309,976.8852 987.79317,938.1583 C 927.4936,953.49005 865.8777,962.55231 804.01262,968.4922 C 792.06762,1013.2468 834.4752,1115.3857 754.63342,1093.5837 C 725.08906,1093.3685 695.54454,1093.1743 666,1092.9878 z M 593.78986,1055.0483 C 623.72389,1046.1812 606.52065,1011.9319 611.02517,989.45686 C 611.61949,769.86342 609.4645,550.20954 612.47918,330.66368 C 747.70249,325.07724 884.0255,329.42076 1019.6787,328.90033 C 1085.4002,326.92249 1153.1228,351.17426 1197.5143,400.81904 C 1154.5319,325.02495 1058.4319,298.51187 976.36081,304.15893 C 850.41701,303.88268 724.47272,304.04326 598.52869,304 C 521.30986,262.32795 656.7445,284.90658 687.53389,279.10475 C 816.7335,280.47707 946.16831,275.82095 1075.2219,282.01063 C 1171.7905,293.17869 1263.8281,366.2073 1271.6458,467.5 C 1285.483,558.28657 1247.3461,661.7419 1158.6325,699.51897 C 1133.7475,722.32716 1013.7351,721.57897 1095.3116,742.26454 C 1139.2153,749.56963 1176.9437,797.90083 1199.671,813.49878 C 1315.6589,751.60028 1426.4217,640.39761 1420.6861,499.51039 C 1419.3066,465.7652 1410.2391,431.53735 1416.243,485.52015 C 1424.9899,510.87661 1393.2905,615.80405 1399.0297,540.70075 C 1407.4745,414.01997 1302.214,315.81383 1196.6882,265.41383 C 993.13907,169.66469 748.73018,166.10281 540.08243,248.31076 C 428.68215,294.05523 309.5338,382.36665 301.49965,512.71138 C 296.52822,638.30488 403.90093,733.21978 508.85593,782.23007 C 547.1595,810.83387 569.5763,805.56274 560,760.02715 C 560.57722,602.40946 558.50454,444.65254 561.52652,287.14152 C 594.03445,302.85028 582.56557,343.20155 584.5399,373.146 C 584.69765,601.09733 584.85544,829.04867 585.01324,1057 L 587.54645,1057 L 593.78984,1055.0484 L 593.78986,1055.0483 z M 1196.7001,804.25 C 1202.0318,780.54415 1220.12,808.17461 1196.7001,804.25 z M 1217.3014,791.3432 C 1221.6766,773.78129 1241.7199,788.52883 1217.3014,791.3432 z M 1103.1147,1044.3411 C 1092.0177,996.0882 1047.0343,936.34364 1024.156,884.13971 C 991.79847,826.05725 966.76394,750.34172 898.84461,726.37018 C 937.34083,710.71512 1007.1086,776.64966 1022.7578,827.82317 C 1053.8248,891.47551 1092.9092,951.6831 1118.8566,1017.4918 C 1085.8847,1068.5133 1187.9808,1029.8546 1212.5399,1042.6538 C 1250.241,1047.0591 1291.0222,1042.7167 1234.4485,1021.5691 C 1192.4541,988.23381 1176.8262,931.02984 1144.6691,888.77491 C 1127.6685,808.37428 1019.7313,829.96439 994,763.34505 C 978.28932,708.10799 1039.2796,670.88053 1090.5577,670.37566 C 1153.3338,664 1222.5455,591.72553 1214.6624,543.17742 C 1211.1614,506.00233 1206.816,425.95473 1153.9673,398.17373 C 1074.5767,337.83895 969.50975,360.87854 877.02097,356.01732 C 798.33082,355.98261 719.64066,356.00756 640.9505,356 C 637.09744,574.72478 639.77485,794.15438 639,1013.1867 C 579.90219,1067.0088 700.17998,1034.1525 730.62271,1042.9833 C 775.03049,1048.9939 719.34515,984.23232 740.01607,953.7532 C 741.1316,893.3601 738.11456,832.19506 741.28605,772.17689 C 766.16648,714.66566 847.23505,716.19245 903.37847,731.74772 C 964.81401,764.90104 976.67244,840.42589 1012.9653,894.5 C 1044.3712,940.09964 1063.1436,1016.1138 1103.1147,1044.3411 z M 802.5,674.99982 C 727.56661,675.2042 735.49647,589.54668 739.9806,537.56081 C 743.65545,506.3945 732.68906,471.91227 746.15518,442.91065 C 775.09698,391.36315 846.35757,406.80312 899.55463,404.92663 C 927.64767,397.14792 1008.4125,418.45593 993.09574,402.27343 C 1051.5657,403.21491 1105.748,451.5821 1104.6212,512.03902 C 1111.741,577.29373 1073.3228,645.35433 1008.9418,664.34768 C 954.12254,686.56722 892.33006,671.53762 834.475,675.51687 C 823.81606,675.39928 813.15457,675.36731 802.5,674.99982 z M 980.2439,645.15503 C 1077.8593,631.0369 1112.1017,488.47297 1035.7649,429.2345 C 968.80724,385.05959 1072.8157,456.7873 1053.9088,494.18256 C 1054.323,552.43123 1008.3511,606.87213 953.81729,623 C 896.3131,624.39426 837.67764,618.84368 781.53213,628.65761 C 731.80588,615.85794 820.89274,665.23107 841.88565,647.45983 C 887.91177,646.66558 934.45305,649.75493 980.2439,645.15503 z M 975.13324,594.6181 C 1047.6621,583.67858 1042.6049,456.6119 967.04428,455.57334 C 917.10664,463.60354 832.06829,436.11237 803.43284,469.43031 C 808.5144,523.24599 773.55007,623.87106 863.37837,596.66627 C 900.41136,594.81824 938.57258,600.2889 975.13324,594.6181 z M 851.06201,909.47351 C 880.58472,904.16979 1003.5236,908.12937 945.25669,869.90143 C 903.80659,890.97354 808.45756,853.58141 806.51331,908.55699 C 815.29222,914.86501 838.35906,908.35484 851.06201,909.47351 z M 885.5,853.46747 C 925.12945,858.40998 968.22664,848.88332 923.37751,808.11997 C 894.10283,760.98849 774.90981,749.17618 803.09191,828.39654 C 790.85112,874.94551 860.86255,847.12094 885.5,853.46747 z M 1130.8069,812.24213 C 1114.4248,770.84268 1033.6619,765.12664 1021.5983,765.74414 C 1052.8019,785.00112 1106.6401,801.56148 1130.8069,812.24213 z M 140,216.57259 C 148.40401,198.9137 149.64945,224.73436 140,216.57259 z"
     style="opacity:1;fill:#7786a7" />
  <path
     sodipodi:nodetypes="cccccccccccccccccccccccccccccccccccccccccccscccccccccccccccccccccccccccccccccccccccccccccccccccccccccccccccccccccccccc"
     id="path2394"
     d="M 666,1092.9474 C 641.0711,1081.9476 561.36678,1112.5874 563.672,1077.8596 C 603.87406,1032.5811 664.33172,1046.6746 718.04106,1044.9463 C 787.39774,1050.4186 741.01145,943.41586 754.29506,895.65096 C 755.80149,849.82694 751.56683,802.94868 756.66248,757.78375 C 791.59389,706.70628 890.10947,714.74901 931.43535,758.63458 C 966.40237,804.70959 983.4053,861.67486 1014.4683,910.82146 C 1045.7293,950.98189 1060.7695,1037.2834 1103.5006,1046.8873 C 1145.8976,1040.8943 1191.5289,1046.632 1234.9805,1044.2546 C 1313.035,1057.4093 1217.801,973.84123 1210.5362,940.4233 C 1180.5383,891.76935 1151.7788,841.24147 1122.9598,792.70763 C 1106.1532,768.06131 976.41655,737.94541 1010.4555,747.54826 C 1043.0531,803.74676 1140.9163,788.18794 1157.9826,864.94305 C 1190.7419,920.42816 1226.2423,974.67101 1255.9719,1031.8244 C 1201.2385,1007.3607 1188.9431,939.15838 1153.2495,895.54543 C 1133.7054,829.96092 1070.0489,814.75966 1014.9365,790.82839 C 985.73632,777.44195 994.70513,720.4887 1007.5281,726.67897 C 1023.2179,646.94479 1139.5331,689.01137 1180.7745,624.2893 C 1240.4132,559.17401 1236.8729,450.67277 1189.3224,379.64667 C 1154.4078,330.53179 1095.0636,310.99197 1042.0176,291.63483 C 1019.446,283.17617 990.83791,290.40449 965.93663,288 C 837.65081,287.21599 709.17359,289.99627 581.03769,286.15988 C 624.84691,277.31882 707.41731,284.34528 765.31304,281.69309 C 870.07655,283.72457 975.40172,276.80223 1079.8039,284.44507 C 1174.5548,295.98083 1263.8844,368.09473 1271.6458,467.5 C 1285.4737,558.25552 1247.3797,661.6771 1158.7143,699.48032 C 1141.249,720.51501 1044.623,718.16987 1071.3977,735.06357 C 1115.0772,750.56672 1174.3516,769.91603 1190.3893,815.0596 C 1236.6242,797.92298 1280.846,761.94519 1318.7824,727.55975 C 1392.9013,657.92007 1440.8593,551.09344 1413.2834,449.38331 C 1421.2419,481.23624 1414.66,571.5309 1397.9241,563.29251 C 1413.4976,461.64228 1352.7366,366.14865 1271.5618,310.31762 C 1097.6515,190.43859 870.94955,168.57381 667.68397,209.20811 C 531.48037,239.14451 385.60687,303.42862 320.6058,434.46371 C 273.11093,530.78731 318.36717,646.74368 398.31657,710.53007 C 445.14139,752.29008 501.65396,781.28726 559.5,804.60455 C 568.27125,848.60641 551.65413,871.93839 508.73786,843.60552 C 447.04579,826.46614 391.31982,789.20051 362.48796,732.55365 C 283.63154,668.49632 218.55433,567.72788 243.2419,462.28558 C 271.72312,334.97031 389.97953,259.18293 499.17084,205.25312 C 621.03298,122.94458 774.72875,110.53995 917.81434,116.93237 C 1058.3986,128.6668 1197.1071,180.68223 1305,272.6198 C 1178.1919,157.82051 1006.4519,111.43232 841.60488,84.096993 C 790.18716,82.631749 734.60952,71.665298 689.38776,72.80624 C 627.36948,74.370956 561.67506,76.982794 498.84527,84.450891 C 402.38807,97.969298 305.82061,119.23238 220.07278,167.19728 C 192.54116,177.8076 119.44445,235.382 178.05395,180.86839 C 360.05638,35.126803 605.99969,-7.3888247 833.59993,12.967889 C 1040.3491,34.713521 1259.2527,115.45065 1382.9909,291.32609 C 1463.6841,403.98201 1467.0362,564.17108 1388.0655,678.7083 C 1343.8574,750.01001 1275.3799,802.75993 1208.214,849.30591 C 1254.3411,929.56266 1303.6144,1007.9826 1349.441,1088.4123 C 1272.3264,1095.7501 1190.6532,1089.9723 1111.7771,1091.5725 C 1043.0158,1097.3004 1041.6132,995.7644 1002.8764,953.57679 C 968.05294,918.93081 895.76709,971.54325 845.00485,963.96192 C 766.01092,951.1283 822.93448,1055.6072 796.63637,1093.6699 C 753.10046,1093.8895 709.54181,1093.0599 666,1092.9474 z M 851.06201,909.47351 C 880.58472,904.16979 1003.5236,908.12937 945.25669,869.90143 C 903.80659,890.97354 808.45756,853.58141 806.51331,908.55699 C 815.29222,914.86501 838.35906,908.35484 851.06201,909.47351 z M 886,853.47992 C 921.19431,856.00912 970.0353,852.44535 926.50003,811.46732 C 902.16767,764.52396 779.99067,746.00864 803.03661,821.19714 C 788.5839,877.14384 854.95399,847.31134 886,853.47992 z M 612.66669,1038.3333 C 611.52777,802.93011 612.16888,567.51982 612,332.1134 C 719.49946,325.13971 829.44536,330.89767 937.84557,329.10949 C 1019.4188,328.19361 1112.4679,322.40693 1176.7024,382.56231 C 1208.5402,397.42338 1232.1842,485.46603 1213,485.29312 C 1197.4204,390.31203 1091.1497,348.11276 1004.6814,352.44444 C 882.43635,351.93631 760.16456,351.26816 637.93426,353.03518 C 633.29133,572.75635 637.78632,792.92898 635.07918,1012.8131 C 631.10947,1021.2877 623.2889,1037.8014 612.66669,1038.3333 z M 1104.3835,1033.75 C 1056.4262,947.3355 1015.4479,856.63507 962.86895,773.07534 C 940.08376,751.37018 905.30633,713.64374 958.42132,746.91003 C 1014.8572,794.42249 1033.8793,869.88292 1072.2154,930.67042 C 1079.0248,957.44389 1139.7591,1022.3651 1104.3835,1033.75 z M 535.1192,953.43585 C 345.91372,917.4902 148.13357,827.10047 49.792983,653.00107 C 12.648757,582.08135 -7.7938009,492.6968 21.561871,416 C 23.689644,454.59842 28.276218,489.25681 45.112113,521.53856 C 58.488321,551.20914 97.197724,615.06987 79.374879,541.5 C 60.640531,414.19756 136.58493,293.43945 237.66914,222.41486 C 337.55165,151.16581 457.5335,102.18975 580.81007,96.616144 C 626.66267,126.08444 505.58509,139.30278 480.03146,154.64521 C 347.98549,200.11265 212.12812,279.26759 154.73175,412.94595 C 108.45065,520.09372 160.00773,640.65369 239.137,716.96931 C 287.58987,767.6798 339.70989,817.42611 408.36514,838.70733 C 454.34674,873.79836 564.07439,850.60117 560.16243,923.12396 C 560.16849,946.50071 569.28376,967.58614 535.1192,953.43585 z M 538.5,871.13263 C 506.59241,862.24073 497.05062,848.9877 536,862.98982 C 552.94188,861.74926 574.27984,884.74869 538.5,871.13263 z M 1196.7001,804.25 C 1202.0318,780.54415 1220.12,808.17461 1196.7001,804.25 z M 1217.3014,791.3432 C 1221.6766,773.78129 1241.7199,788.52883 1217.3014,791.3432 z M 799.5,670.94806 C 744.16235,680.13735 729.85845,586.33523 754.25666,591.01409 C 767.27125,532.12499 720.32179,427.88456 798.95443,407.70338 C 863.45551,409.9486 929.89551,399.35463 993.07079,413.69831 C 1040.0275,411.22047 1064.0256,517.60565 1026.0667,502.84179 C 1004.2324,434.4889 920.47313,459.63412 866.66549,455.01867 C 821.6998,446.89361 787.62485,454.70944 803.01321,507.36935 C 802.98751,536.56419 803.00527,565.75906 803,594.95392 C 849.25476,607.9961 920.18885,590.2191 955.06574,605.96482 C 914.92997,610.40481 872.31133,602.80966 833.14795,609.51202 C 808.09582,614.30397 752.7458,622.24969 757.45548,613.54826 C 784.08179,671.66911 862.25004,638.3997 912.37936,647.87264 C 971.80017,654.80246 1042.9396,637.79243 1067.1162,576.48917 C 1092.1275,520.41808 1073.5943,452.66223 1025.6904,415.15355 C 1097.4056,427.7368 1115.7146,520.20878 1092.3254,579.28772 C 1069.7216,646.07904 995.30642,680.24663 928.30371,671.89122 C 885.37063,671.75943 842.42291,672.00515 799.5,670.94806 z M 140,216.57259 C 148.40401,198.9137 149.64945,224.73436 140,216.57259 z"
     style="opacity:1;fill:#80847d" />
  <path
     sodipodi:nodetypes="ccccccccccccccccccccccccccccccsssccccccccccccccccccccccccccccccccccccccccccccccccccccccccccccccccccccccccc"
     id="path2392"
     d="M 661.5,1091.9998 C 630.08953,1090.3633 514.17056,1103.0216 590.1317,1059.3875 C 635.59729,1023.7764 713.78523,1063.3551 753.46634,1035.7622 C 755.94349,944.05353 752.26862,851.51665 755.76551,760.15477 C 786.1694,706.74038 880.65722,716.46702 924.2533,751.36009 C 964.80992,794.33385 978.11348,854.55595 1010.5868,903.48989 C 1041.9504,947.84679 1059.7835,1026.7403 1100.4166,1048.75 C 1125.4734,1038.9774 1155.5416,1047.159 1182.562,1044.4214 C 1218.5504,1040.7362 1303.1633,1061.9731 1250.8729,1007.5981 C 1207.8625,936.36842 1164.4681,864.00863 1122.9598,792.70763 C 1106.1532,768.06131 976.41655,737.94541 1010.4555,747.54826 C 1038.3443,803.24839 1132.7254,784.32383 1151.1644,853.78771 C 1186.3588,912.91644 1223.986,970.93122 1255.9719,1031.8244 C 1201.2385,1007.3607 1188.9431,939.15838 1153.2495,895.54543 C 1133.7054,829.96092 1070.0489,814.75966 1014.9365,790.82839 C 985.73632,777.44195 994.70513,720.4887 1007.5281,726.67897 C 1018.3827,651.04022 1124.659,688.33318 1166.1342,637.13169 C 1239.7921,578.54922 1239.2586,461.84562 1193.7784,386.05571 C 1159.6967,333.03463 1097.472,311.27929 1042.0176,291.63483 C 1019.6185,283.18311 991.19013,290.39943 966.46203,288 C 838.00117,287.21407 709.34891,289.99325 581.03769,286.15988 C 624.84691,277.31882 707.41731,284.34528 765.31304,281.69309 C 870.07655,283.72457 975.40172,276.80223 1079.8039,284.44507 C 1173.9267,295.88268 1262.9452,367.20915 1270.9063,466 C 1287.1155,558.99524 1244.8267,665.99532 1152.8019,701.92302 C 1124.5671,722.33578 1011.1229,722.32455 1097.1412,743.93849 C 1142.6738,749.06711 1171.6636,802.18478 1200.4152,814.19445 C 1318.1302,751.48916 1429.1706,636.46455 1421.6871,494 C 1411.6722,343.09008 1285.2951,233.49957 1157.7339,171.69732 C 1049.5265,113.82211 935.0521,64.909503 812.5,48.139192 C 781.66953,35.681975 754.35398,38.208352 734.27836,36.263835 C 706.7263,33.595152 680.19614,34.086414 653.78607,31.820299 C 616.25101,28.599604 598.38984,30.838723 555.03898,35.367005 C 517.77233,39.259751 490.34926,33.110992 543.99888,25.932812 C 780.15308,-17.433772 1037.6241,18.739269 1240.2602,152.31038 C 1364.7556,233.0849 1464.9504,377.12207 1443.2243,531.12705 C 1425.5278,669.22653 1321.5054,777.78968 1207.4631,848.05976 C 1253.047,929.65786 1304.6469,1008.398 1349.4872,1090.0207 C 1258.3951,1091.4484 1167.247,1091.463 1076.1535,1090.116 C 1038.1975,1046.6756 1028.6261,947.01679 971.86123,941.45059 C 916.52111,955.82504 859.39589,961.65363 803,968.95709 C 802.50308,1010.1286 804.03534,1051.4268 801.5,1092.5 C 754.83299,1092.6882 708.16599,1092.2293 661.5,1091.9998 z M 847,911.48175 C 881.23518,901.02874 1002.5541,917.97565 949.39529,862.32206 C 907.76403,884.27953 819.1612,850.68533 804.93682,895.66431 C 796.35534,925.69521 832.02735,908.97667 847,911.48175 z M 897.25037,853.92157 C 994.38246,870.61483 899.2886,751.62436 845.69825,773.15493 C 791.61793,744.75016 785.80299,849.9473 820.38323,854.77695 C 846.00385,854.95071 871.64556,854.93007 897.25037,853.92157 z M 612.66669,1038.3333 C 611.52593,802.93012 612.16978,567.51981 612,332.1134 C 716.34919,325.1479 823.1455,330.89956 928.39681,329.08963 C 1010.7518,329.28529 1103.5039,320.04984 1170.9835,377.40432 C 1205.8575,392.7141 1233.179,482.23767 1213,485.29312 C 1197.4204,390.31203 1091.1497,348.11276 1004.6814,352.44444 C 882.43635,351.93631 760.16456,351.26816 637.93426,353.03518 C 633.29133,572.75635 637.78632,792.92898 635.07918,1012.8131 C 631.10947,1021.2877 623.2889,1037.8014 612.66669,1038.3333 z M 1104.3835,1033.75 C 1056.4262,947.3355 1015.4479,856.63507 962.86895,773.07534 C 940.08376,751.37018 905.30633,713.64374 958.42132,746.91003 C 1013.3483,792.44601 1031.7709,865.30528 1068.7067,924.04236 C 1076.7149,955.35576 1138.6945,1016.3703 1104.3835,1033.75 z M 551,955.89478 C 361.62769,922.84028 165.62747,837.61341 59.945691,669.17121 C 40.304664,647.02445 2.798145,536.83417 49,605.92378 C 79.588006,641.66177 122.62771,697.607 160.57661,708.39813 C 80.884915,618.26819 51.146386,481.06228 108.73529,371.65376 C 186.51881,225.7067 346.05541,140.37601 503.8363,110.29936 C 575.82849,115.71704 438.82949,160.89112 417.85126,170.61447 C 292.12569,224.43075 160.84809,317.15597 132.94961,459.9332 C 111.62569,564.53642 172.04345,659.20622 228.06589,741.5 C 314.59941,828.88865 439.30855,860.36668 554.647,890.53193 C 557.23819,905.07838 572.08815,956.56277 551,955.89478 z M 551.5,844.28168 C 494.6951,830.60257 449.71686,795.48407 407,759.01577 C 316.13016,700.52705 229.9033,604.6941 241.06896,489.15124 C 254.77575,355.71281 374.86468,266.91137 488.50098,215.51779 C 579.77415,172.52519 673.14087,126.26969 776.22191,123.575 C 969.39122,106.27894 1178.5624,151.47789 1319.8311,291.59969 C 1359.9953,334.48257 1402.6932,389.51998 1399.2091,450.55427 C 1368.0172,421.52592 1343.6845,363.69927 1302.3187,334.41822 C 1154.9255,211.42075 951.89025,178.37957 765.25943,194.06361 C 612.45486,209.88191 449.50664,260.53008 350.14656,384.69309 C 284.13684,464.17536 285.92184,586.88152 353.80138,664.71443 C 406.13252,731.16607 481.95482,774.14453 559.37463,805.07215 C 559.06667,820.89315 559.43157,830.73645 551.5,844.28168 z M 799.5,670.94806 C 744.16235,680.13735 729.85845,586.33523 754.25666,591.01409 C 767.27125,532.12499 720.32179,427.88456 798.95443,407.70338 C 863.45551,409.9486 929.89551,399.35463 993.07079,413.69831 C 1040.0275,411.22047 1064.0256,517.60565 1026.0667,502.84179 C 1001.7638,431.97398 914.93343,459.38236 858.10918,454.15623 C 815.82779,444.09607 793.20665,456.29711 803.18673,498.41812 C 809.42098,535.36637 778.45382,610.40746 838.37536,599.18185 C 874.56418,597.38434 943.90875,601.13559 950.52691,606.41375 C 911.87073,609.98923 870.80245,602.98941 833.14795,609.51202 C 808.09582,614.30397 752.7458,622.24969 757.45548,613.54826 C 782.2193,670.30656 857.32354,639.18562 905.45876,647.83818 C 963.67425,653.35623 1034.4615,643.70347 1062.9597,584.95558 C 1093.7293,528.05556 1076.4334,454.35354 1025.6904,415.15355 C 1097.4056,427.7368 1115.7146,520.20878 1092.3254,579.28772 C 1069.7216,646.07904 995.30642,680.24663 928.30371,671.89122 C 885.37063,671.75943 842.42291,672.00515 799.5,670.94806 z"
     style="opacity:1;fill:#7d8179" />
  <path
     id="path2390"
     d="M 663,1091.9828 C 631.63496,1090.0948 513.79591,1103.4511 590.1317,1059.3875 C 635.59729,1023.7764 713.78523,1063.3551 753.46634,1035.7622 C 755.86776,944.06222 752.33221,851.57973 755.73897,760.22494 C 784.31074,707.44628 871.99118,718.38589 917.29856,745.2202 C 962.82362,784.6287 973.46845,847.29425 1006.5384,895.91945 C 1035.6335,947.94223 1060.2071,1002.8907 1092.2667,1053 C 1118.1718,1036.046 1151.6013,1048.0767 1180.9866,1044.4231 C 1217.1586,1040.5204 1303.431,1062.4632 1250.8729,1007.5981 C 1207.8625,936.36842 1164.4681,864.00863 1122.9598,792.70763 C 1106.1532,768.06131 976.41655,737.94541 1010.4555,747.54826 C 1036.3005,802.57475 1127.9426,782.54875 1147.5115,847.77997 C 1183.9554,908.90277 1222.7999,968.90498 1255.9719,1031.8244 C 1201.2385,1007.3607 1188.9431,939.15838 1153.2495,895.54543 C 1133.7054,829.96092 1070.0489,814.75966 1014.9365,790.82839 C 985.73632,777.44195 994.70513,720.4887 1007.5281,726.67897 C 1018.3827,651.04022 1124.659,688.33318 1166.1342,637.13169 C 1239.7921,578.54922 1239.2586,461.84562 1193.7784,386.05571 C 1159.6967,333.03463 1097.472,311.27929 1042.0176,291.63483 C 1020.1109,283.20336 992.19609,290.3847 967.96247,288 C 839.00037,287.23179 709.85137,289.95664 581.03769,286.15988 C 622.47825,277.35719 702.62253,284.34023 758.16367,281.70916 C 861.0911,282.65178 964.25402,279.06872 1067.0394,282.5784 C 1162.728,290.58489 1258.6318,357.93215 1269.562,458.75394 C 1287.8533,553.74251 1247.4208,664.3683 1152.8407,701.8179 C 1131.6334,721.62149 1011.6497,720.86126 1090.734,741.73911 C 1140.1838,744.56555 1169.6989,801.72373 1200.0978,815.21557 C 1315.4425,753.45139 1425.5555,642.03456 1422.2336,502.5 C 1421.3564,373.87403 1324.3655,273.48364 1227,201.96039 C 1146.6954,128.73518 1045.0479,82.901531 942.38608,50.003738 C 908.09142,36.035007 841.21669,27.699544 823.927,17.043775 C 1020.7886,29.057842 1224.1621,104.15132 1355.6974,256.17916 C 1445.4438,357.39307 1474.3447,511.31232 1412.3276,634.00741 C 1369.9548,726.34996 1290.0989,794.05835 1207.2451,848.82939 C 1253.6505,929.75782 1304.6691,1008.5129 1349.4818,1090.0294 C 1258.3912,1091.4452 1167.2453,1091.4571 1076.1535,1090.116 C 1039.6317,1046.7613 1028.3551,951.98662 976.47386,940.07365 C 922.07132,961.19842 844.10099,950.9976 802.261,977.99526 C 793.77967,1022.7252 830.83049,1116.2927 753.0365,1092.5862 C 723.02444,1092.3709 693.01221,1092.1734 663,1091.9828 z M 850,913.46973 C 889.69641,901.87724 1007.7777,920.36037 947.80057,854.22419 C 934.60014,790.47725 870.63739,761.05254 810.45794,773.16683 C 793.29072,809.85371 804.44433,876.44387 810.08128,916.24358 C 823.41872,915.85449 836.71186,914.61289 850,913.46973 z M 612.66669,1038.3333 C 611.52705,802.93011 612.16899,567.51982 612,332.1134 C 713.0772,325.16375 816.59816,330.89142 918.57938,329.07181 C 1004.019,330.14621 1100.625,317.77928 1170.9835,377.40432 C 1205.8575,392.7141 1233.179,482.23767 1213,485.29312 C 1198.3087,394.04166 1097.8588,350.39713 1014.0828,352.53962 C 888.70502,351.89409 763.29799,351.25376 637.93426,353.03518 C 633.30239,572.75727 637.76603,792.92745 635.07918,1012.8131 C 631.10947,1021.2877 623.2889,1037.8014 612.66669,1038.3333 z M 1104.3835,1033.75 C 1056.4262,947.3355 1015.4479,856.63507 962.86895,773.07534 C 951.35236,757.21284 897.99835,714.58612 951.1543,741.52168 C 1011.9246,785.58715 1030.1068,863.09398 1068.7067,924.04236 C 1076.7149,955.35576 1138.6945,1016.3703 1104.3835,1033.75 z M 550,955.39026 C 372.59622,923.70847 188.36855,848.09432 80.971426,696.71768 C 57.558395,650.36693 138.07454,741.41847 165.25534,749.7082 C 279.93857,830.3184 415.73139,877.12185 552.73271,903.46927 C 563.41724,889.61055 567.97855,959.0042 550,955.39026 z M 558.11981,825.5 C 528.86772,806.03647 457.30393,791.90362 419.03656,760.95618 C 321.70753,705.10912 230.18838,605.24353 243.80922,485.15544 C 261.28873,346.98199 389.04346,259.05851 508.12391,210.09197 C 634.05474,160.57165 769.28048,119.81728 906.02751,137.42788 C 1049.9746,148.84945 1205.2688,186.27444 1304.401,298.59731 C 1318.7498,316.80719 1368.8573,399.53566 1317.4251,347.3549 C 1180.3018,221.36298 984.13702,183.45626 803.13901,191.10444 C 639.81049,200.9208 463.7972,249.31129 354.53191,378.81536 C 288.0427,454.59401 283.10203,573.98733 345.16648,653.74461 C 397.43571,725.31967 475.97525,772.90279 557.5,804.42542 C 563.11409,805.93241 557.45817,838.22058 558.11981,825.5 z M 165.43211,694.71826 C 64.419711,603.9662 53.520579,438.2542 134.40231,330.91765 C 208.49112,226.87816 326.21095,158.02109 448.92489,128.02615 C 502.19676,122.28404 357.50226,183.08527 386.54551,170.68536 C 262.7388,229.69482 138.66508,331.64187 120.5118,475.83031 C 109.41398,553.83258 145.14687,625.93886 171.21105,696.58737 L 169.60787,697.19417 L 165.43212,694.71824 L 165.43211,694.71826 z M 799.5,670.94806 C 744.16235,680.13735 729.85845,586.33523 754.25666,591.01409 C 766.82174,531.94404 723.95952,440.3403 791,408.12315 C 855.3541,408.42776 920.72525,402.30383 984.47397,410.94519 C 1035.1336,405.17586 1067.2973,514.1834 1026.0667,502.84179 C 1003.2537,433.68109 919.59197,457.84237 864.95418,453.80225 C 824.37331,447.41199 785.23816,451.6479 802.00553,503.44794 C 800.84934,550.33424 787.22897,621.20939 858.36166,599.38099 C 888.11693,597.29315 936.43083,600.80801 950.52691,606.41375 C 911.8578,609.93988 870.81809,603.04849 833.14795,609.51202 C 808.09582,614.30397 752.7458,622.24969 757.45548,613.54826 C 782.2193,670.30656 857.32354,639.18562 905.45876,647.83818 C 963.67425,653.35623 1034.4615,643.70347 1062.9597,584.95558 C 1090.7408,531.99048 1080.5944,459.40203 1031.5329,422.20701 C 1048.7303,404.3443 1110.4265,473.8098 1101.2222,515.74425 C 1111.2536,601.92057 1031.2849,680.92161 945.51602,671.86365 C 896.84598,671.81538 848.15965,672.0699 799.5,670.94806 z M 752.61719,21.81922 C 747.1291,-8.487856 771.40615,24.711808 752.61719,21.81922 z M 810.66669,19.333332 C 812.38058,6.5691893 819.18016,24.332251 810.66667,19.333333 L 810.66669,19.333332 z"
     style="opacity:1;fill:#667391" />
  <path
     id="path2388"
     d="M 664.5,1091.9412 C 632.0236,1088.2098 515.91569,1106.2398 595.02753,1059.0502 C 618.6455,1041.9608 650.9037,1053.8702 678.44972,1050.0245 C 723.96507,1052.6592 779.88826,1059.5629 758.99121,994.87445 C 760.72312,915.57298 757.08748,835.12067 760.98626,756.3295 C 788.09234,712.85145 858.33525,729.59545 899.5425,741.68079 C 936.23732,751.46661 962.55315,863.75775 913.0641,794.16271 C 871.77398,759.10582 771.96022,755.51409 802.04,834.86047 C 807.60264,875.60305 789.13674,938.74965 854.56083,912.94754 C 898.78059,915.38933 992.8418,870.04057 988.03448,936.97723 C 927.82339,953.60029 865.68075,961.40395 803.75,968.1468 C 787.47814,1007.8251 834.97347,1106.8979 765.49934,1092.6688 C 731.83306,1092.4049 698.16647,1092.1707 664.5,1091.9412 z M 1077.807,1090.3217 C 1073.7009,1031.0925 1170.1475,1052.6278 1210.131,1049.0123 C 1248.8021,1047.7579 1312.0109,1064.5826 1261.9444,1011.4908 C 1222.1978,944.55219 1181.1506,878.37266 1142.3494,810.89887 C 1146.5371,786.57215 1099.3128,739.94909 1151.4463,772.40339 C 1179.505,791.62436 1189.4427,841.89949 1226.1782,799.89883 C 1335.5503,735.77418 1433.115,620.57721 1421.7018,486.55576 C 1412.7741,359.78789 1313.8618,266.4387 1218.5,194.49758 C 1133.9819,120.9723 1028.4557,75.805973 921.93528,43.623939 C 894.84656,33.120963 814.74782,7.9309852 823.927,17.043775 C 1020.7886,29.057842 1224.1621,104.15132 1355.6974,256.17916 C 1445.4438,357.39307 1474.3447,511.31232 1412.3276,634.00741 C 1370.3002,726.6506 1288.836,794.2617 1207.2112,849.29106 C 1253.3592,929.18485 1301.8212,1007.7191 1348.5511,1087.2726 C 1282.206,1094.8351 1209.8951,1088.9974 1141.2677,1090.8824 C 1120.1146,1090.755 1098.9535,1090.9532 1077.807,1090.3217 z M 613.66669,1036.3333 C 613.22181,801.26629 611.6152,566.13631 614.37859,331.10076 C 762.5263,329.83733 910.80101,329.19219 1058.9242,332.11004 C 1116.9147,340.91842 1184.8026,368.69053 1204.9106,428.43889 C 1166.7891,398.77914 1121.1689,359.55054 1066.4139,354.7711 C 956.44118,345.03799 845.41273,352.29365 735.01853,350.02914 C 704.00626,360.29188 623.55757,324.76292 632.96421,378.01105 C 631.93962,591.66081 634.75886,805.47902 630.60436,1019 C 625.19409,1023.7978 622.73703,1036.0791 613.66669,1036.3333 z M 1104.8507,1031.2786 C 1056.0222,942.61702 1012.3187,851.02504 961,763.83594 C 1008.9146,790.73414 1020.0276,855.3475 1049.955,899.5 C 1061.8236,938.62644 1122.6235,1001.9464 1104.8507,1031.2786 z M 1247.5,1026.2607 C 1205.9481,992.35127 1192.3733,934.79367 1159.4819,895 C 1141.2127,842.60961 1097.8293,813.96066 1045.4675,802.59922 C 1009.9631,804.90917 985.2903,728.46639 1029.8586,774.4459 C 1098.6249,788.53658 1148.0948,832.33841 1175.0867,896.70219 C 1196.5544,939.41037 1234.5847,988.75234 1247.5,1026.2607 z M 536.5,953.00244 C 363.68782,919.73387 185.59595,844.39762 80.971426,696.71768 C 57.558395,650.36693 138.07454,741.41847 165.25534,749.7082 C 280.34686,830.50416 416.57982,877.60881 554.14342,903.58864 C 555.05849,920.06611 573.7407,971.89768 536.5,953.00244 z M 548.5,819.5144 C 429.81472,779.33316 306.23997,707.91705 256.87722,586.49209 C 214.29884,480.3473 271.65249,362.08385 357.96558,296.77348 C 473.46073,207.14394 618.11899,164.15454 759.94062,138.03765 C 885.3323,127.09474 1014.3269,141.7971 1133.0642,184.32937 C 1202.2418,212.62636 1274.5064,251.02963 1314.8218,316.29481 C 1330.5447,328.55972 1361.8885,399.8634 1317.4251,347.3549 C 1180.3018,221.36298 984.13702,183.45626 803.13901,191.10444 C 639.81049,200.9208 463.7972,249.31129 354.53191,378.81536 C 288.0427,454.59401 283.10203,573.98733 345.16648,653.74461 C 397.2744,725.5448 476.03699,772.1572 557,804.88934 C 556.61782,810.48519 558.939,826.26002 548.5,819.5144 z M 1024.9073,746.69299 C 977.86099,676.98955 1092.227,682.47826 1131.4395,661.36723 C 1217.0226,627.99308 1243.0819,525.27587 1224.3566,442.82696 C 1216.277,391.15608 1180.9646,349.90144 1151.0261,310.48385 C 1253.2971,342.29064 1289.2326,464.97205 1267.3041,561.06948 C 1250.7288,660.5248 1152.2216,719.6485 1058.0224,726.48618 C 1056.79,740.40816 1037.9994,753.71493 1024.9073,746.69299 z M 165.43211,694.71826 C 64.419711,603.9662 53.520579,438.2542 134.40231,330.91765 C 208.49112,226.87816 326.21095,158.02109 448.92489,128.02615 C 502.19676,122.28404 357.50226,183.08527 386.54551,170.68536 C 262.7388,229.69482 138.66508,331.64187 120.5118,475.83031 C 109.41398,553.83258 145.14687,625.93886 171.21105,696.58737 L 169.60787,697.19417 L 165.43212,694.71824 L 165.43211,694.71826 z M 802.5,668.97382 C 765.29209,683.36692 727.03629,593.33991 775.14406,639.49729 C 831.52686,657.52081 893.59875,645.54784 952.36769,648.69476 C 1033.6174,653.57799 1096.2939,568.85408 1076.206,491.8453 C 1068.3053,464.19051 1041.3016,412.56856 1081.1565,460.76275 C 1126.5691,535.7239 1081.6635,645.38383 995.24075,665.14467 C 947.02831,675.79765 896.6202,666.75386 847.57397,669.62693 C 832.54889,669.47565 817.51938,669.46548 802.5,668.97382 z M 772.20374,612.87183 C 746.44968,580.5968 764.48854,531.01403 759.5,490.98736 C 761.46758,463.70314 749.74288,427.4537 783.31263,414.01106 C 844.6564,410.72735 906.86841,410.85527 968.22798,412.70689 C 1017.6927,402.00207 1054.843,512.94478 994.80949,462.90693 C 937.54486,443.61063 874.72239,457.9334 815.20241,454.23386 C 785.58645,469.03153 808.39989,526.8616 802,559.86418 C 801.41018,581.73114 809.77032,621.47911 772.20374,612.87183 z M 752.61719,21.81922 C 747.1291,-8.4878555 771.40615,24.711807 752.61719,21.81922 z M 810.66669,19.333332 C 812.38058,6.5691893 819.18016,24.332251 810.66667,19.333333 L 810.66669,19.333332 z"
     style="opacity:1;fill:#5f6564" />
  <path
     sodipodi:nodetypes="cccccccccccccccccccccccccccccccccccccccccccccccccccccccccccccccccsccccccccccc"
     id="path2386"
     d="M 668.5,1090.9979 C 640.93039,1086.0454 578.30801,1100.4846 571.51614,1082.1051 C 596.91821,1052.2003 636.7477,1066.1439 670.41405,1063 C 701.94059,1049.8879 782.12228,1091.7102 771.96296,1037.8852 C 772.56626,945.21026 771.54293,852.20788 771.38815,759.73674 C 789.62096,727.5631 833.83036,748.69277 865.00171,744.44295 C 892.03304,745.25953 917.72717,794.03727 870.71381,772.68702 C 848.63733,776.63226 820.17197,765.36566 800.80959,776.19041 C 802.30974,830.27647 798.83698,885.12221 805.89702,938.80759 C 861.0677,937.50686 917.40439,921.18751 971.92668,908.93102 C 1019.4507,955.63585 910.23388,944.95573 882.64943,957.30907 C 844.35023,964.95545 781.86497,950.92652 801.01037,1011.1772 C 800.12072,1049.4161 815.12972,1111.2106 755.41704,1091.5798 C 726.44483,1091.3667 697.47239,1091.178 668.5,1090.9979 z M 1081.25,1088.9688 C 1098.3905,1040.0783 1175.8767,1070.5934 1218.7779,1062.0123 C 1253.7261,1059.2388 1296.644,1064.3777 1325.3722,1071.6337 C 1270.8814,981.49634 1216.0379,891.38892 1163.2331,800.28152 C 1162.215,763.1721 1197.7756,861.48952 1197.3428,820.58827 C 1307.0159,760.49071 1412.1614,660.44847 1423.96,529.22389 C 1431.8647,446.86532 1395.8847,368.86621 1364.1966,295.1956 C 1353.3604,277.01402 1316.8411,217.23829 1356.8218,262.07514 C 1447.134,361.64114 1472.269,515.73873 1410.2562,636.35532 C 1366.8884,727.25392 1287.1294,798.06253 1203.2063,848.29871 C 1249.069,928.83051 1299.0749,1006.9998 1344.697,1087.6363 C 1257.4867,1092.4145 1168.8553,1089.3485 1081.25,1088.9688 z M 615,687.63959 C 615.68255,569.42639 613.61808,450.35275 615.49067,332.65219 C 759.87756,329.68713 904.62433,331.17053 1049.1161,332.71171 C 1085.7142,334.19884 1151.9747,357.66013 1159.7585,379.02599 C 1098.7049,347.01943 1029.1956,342.48219 961.58168,345.1358 C 849.83473,345.83386 737.86624,343.08468 626.25,346.69508 C 623.11822,571.44648 626.78599,796.31295 623.85857,1021.0777 C 606.27471,1044.054 619.864,966.54826 615.28166,949.78881 C 615.03691,862.40599 615.00915,775.02264 615,687.63959 z M 541,950.8598 C 520.82102,949.5324 436.31594,924.28228 499.36599,934.45532 C 512.65883,932.32498 586.44679,951.16895 541,950.8598 z M 1113,819.31494 C 1090.7663,807.91862 1015.0767,793.12349 1028.7337,776.81878 C 1047.753,786.50365 1124.0901,802.33359 1113,819.31494 z M 1030.42,733.11432 C 1008.9353,674.08548 1108.2787,700.40167 1138.651,669.82851 C 1216.9255,635.83644 1250.8019,545.04135 1242.5872,464.41308 C 1247.0542,439.83865 1224.0219,391.03533 1234.9102,378.90122 C 1283.2308,446.53437 1282.1101,542.89759 1246.437,615.92373 C 1210.5506,684.37921 1132.9564,717.70522 1059.2772,724.89321 C 1050.7994,730.42897 1041.2026,739.1012 1030.42,733.11432 z M 362.74997,690.91986 C 305.43995,646.91862 259.35063,579.8128 263.29221,504.61746 C 264.27029,388.09693 358.58212,297.01052 455.74378,246.8489 C 619.86079,162.81722 813.88415,149.28706 991.72133,187.59627 C 1019.6629,191.3632 1103.1411,220.32931 1033.4217,204.98896 C 833.22992,169.59181 613.09528,187.00122 439.37036,300.45846 C 353.33575,356.37771 280.85635,456.68958 303.96547,563.73016 C 305.78211,609.69653 356.46271,662.34787 362.74998,690.91989 L 362.74997,690.91986 z M 806.91492,664.02869 C 780.99796,668.88492 748.75416,626.16967 793.04203,648.00711 C 854.81013,650.12902 916.95489,650.69484 978.6593,647.73794 C 1045.2227,637.22335 1088.8785,568.76971 1080.3898,503.77763 C 1087.4261,473.72506 1097.2878,552.58905 1087.451,567.30037 C 1073.5279,632.98225 1004.092,672.38769 940.00847,664.88419 C 895.64423,664.80437 851.27132,664.96484 806.91492,664.02869 z M 779.03003,599.7207 C 768.63041,589.79482 771.21097,574.78434 772.31596,560.37516 C 772.75927,554.59443 772.96508,548.91047 772,543.69043 C 777.04947,505.38902 759.64656,460.06677 780.78752,427.41871 C 829.54876,418.77227 881.74877,428.23624 931.78986,424.47396 C 957.05523,405.3488 1036.0981,471.28248 975.91672,454.65139 C 918.38666,451.67164 859.6665,451.71057 802.41861,455.44113 C 792.652,501.51116 814.80596,561.2333 791.05361,599.97229 L 784.78173,600.98294 L 779.03002,599.72069 L 779.03003,599.7207 z M 1325.1654,236.40331 C 1316.9071,220.00853 1341.203,242.11263 1325.1654,236.40331 z"
     style="opacity:1;fill:#1f2325" />
  <path
     style="fill:#ffffff;fill-opacity:1;opacity:1"
     d="M 71.802014,447.00185 C 72.545259,424.47514 74.458884,412.24096 79.961929,394.83395 C 98.230885,337.04653 139.13656,282.39386 199.47901,235.15129 C 233.56912,208.4619 276.62361,181.65129 276.62361,187.11238 C 276.62361,187.63492 269.09939,193.27111 259.90313,199.63733 C 207.99075,235.57425 153.40328,289.7631 125.43837,333.12021 C 101.40103,370.38797 83.421088,413.42718 76.18706,451.01477 C 71.151253,477.18066 70.816442,476.87426 71.802014,447.00185 z"
     id="path2387" />
  <path
     style="fill:#ffffff;fill-opacity:1;opacity:1"
     d="M 249.07564,695.12633 C 201.38536,653.85821 170.53463,596.11062 161.18159,530.6028 C 154.64851,484.84589 167.29618,422.0309 191.89214,378.07816 C 228.53516,312.59744 300.77234,248.39273 382.29704,208.84553 C 411.66428,194.5996 455.38464,177.42539 470.58117,174.1657 C 478.37412,172.49411 478.31355,172.62378 468.4935,178.63446 C 462.93106,182.03907 448.33427,190.65563 436.05619,197.78227 C 403.62943,216.60397 370.08571,242.48633 338.6907,272.90961 C 280.18978,329.59982 251.5244,379.06643 231.60494,457.70296 C 222.79509,492.48177 222.11089,498.11852 222.02541,536.62362 C 221.94909,570.99352 222.96639,582.19998 227.96937,602.10236 C 236.46206,635.88728 245.48914,659.82084 260.53559,688.44558 C 267.68982,702.05605 272.73156,713.18857 271.73938,713.18448 C 270.74718,713.18044 260.54851,705.05426 249.07564,695.12636 L 249.07564,695.12633 z"
     id="path2389" />
  <path
     style="fill:#ffffff;fill-opacity:1;opacity:1"
     d="M 600.22717,889.76015 C 599.75541,618.65138 597.63186,343.178 595.87835,325.61997 L 594.17596,308.57391 L 600.5981,312.72808 C 606.22913,316.37049 633.88068,317.03303 825.05534,318.10589 C 959.91968,318.86278 1046.6621,320.35939 1052.4539,322.02929 C 1058.9669,323.90718 997.07184,324.8195 849.13283,325.02616 C 732.15636,325.18954 630.19273,326.07477 622.54701,326.99324 L 608.64571,328.66323 L 607.83296,680.77537 C 607.20726,951.8793 606.26966,1034.1184 603.75755,1038.238 C 601.16464,1042.4901 600.43986,1012.0087 600.22715,889.76015 L 600.22717,889.76015 z"
     id="path2391" />
  <path
     style="fill:#ffffff;fill-opacity:1;opacity:1"
     d="M 817.02951,640.95941 C 807.37845,638.92794 810.92654,638.78546 914.67712,637.0377 C 955.36165,636.35235 965.02392,635.3835 976.96082,630.7924 C 1025.5234,612.11461 1056.9145,571.68601 1066.3209,515.70534 C 1070.1474,492.9325 1073.1739,496.66333 1073.524,524.58488 C 1073.938,557.59924 1062.1129,586.03604 1037.8581,610.35406 C 1018.5679,629.69447 1002.4496,638.00578 978.15745,641.13836 C 956.66494,643.90992 830.38046,643.76966 817.02951,640.95941 z"
     id="path2393" />
  <path
     style="fill:#ffffff;fill-opacity:1;opacity:1"
     d="M 740.39902,428.31386 C 741.34652,425.84464 742.12176,421.51858 742.12176,418.70034 C 742.12176,415.88215 746.42064,408.81797 751.67483,403.00222 C 767.31458,385.69085 778.49063,383.72554 867.85977,382.57062 C 950.00893,381.50899 981.6215,382.9771 973.57513,387.48007 C 970.83719,389.01228 932.23857,390.51988 881.74989,391.06666 L 794.64799,392.00993 L 779.78897,399.27981 C 771.61648,403.2782 759.02283,412.4567 751.80308,419.67647 C 744.58334,426.89624 739.45149,430.78304 740.39899,428.31384 L 740.39902,428.31386 z"
     id="path2395" />
  <path
     style="fill:#ffffff;fill-opacity:1;opacity:1"
     d="M 739.48632,744.37036 C 739.39411,726.73609 757.38347,712.35717 788.93911,704.84267 C 804.63811,701.10418 870.94699,700.84936 882.57379,704.48284 C 889.66983,706.70041 888.27516,707.20339 870.53505,708.82436 C 859.49953,709.8327 839.03366,710.49879 825.05534,710.30451 C 789.15891,709.80566 769.9886,717.77555 748.18095,742.26444 L 739.52608,751.9834 L 739.48632,744.37036 z"
     id="path2397" />
  <path
     style="fill:#ffffff;fill-opacity:1;opacity:1"
     d="M 734.09593,1031.5498 C 731.88883,1030.1235 713.22878,1028.7956 692.62914,1028.599 C 672.02951,1028.4024 651.56365,1027.3803 647.14944,1026.3279 L 639.12361,1024.4142 L 648.48708,1022.7738 C 667.08464,1019.5158 714.45234,1018.3516 723.76757,1020.9237 C 729.007,1022.3704 735.46672,1025.955 738.12244,1028.8896 C 743.18792,1034.4868 740.93935,1035.9724 734.09593,1031.5498 z"
     id="path2399" />
  <path
     style="fill:#ffffff;fill-opacity:1;opacity:1"
     d="M 1241.7579,1032.6927 C 1240.9151,1031.8499 1215.7568,1030.0067 1185.8506,1028.5966 C 1113.8745,1025.2031 1107.6201,1020.156 1176.8542,1021.3369 C 1222.4065,1022.1137 1228.9345,1022.8046 1239.7232,1027.9891 C 1246.3446,1031.1709 1249.8559,1033.8757 1247.5261,1033.9997 C 1245.1963,1034.1237 1242.6007,1033.5355 1241.7579,1032.6927 L 1241.7579,1032.6927 z"
     id="path2401" />
  <path
     style="fill:#ffffff;fill-opacity:0.11764706000000000;opacity:1"
     d="M 986.64206,706.81476 C 986.64206,703.00388 997.31957,684.20243 1003.977,676.29044 C 1011.3328,667.54876 1027.8214,661.22127 1078.9391,647.52399 C 1112.6757,638.48407 1150.9289,620.12798 1164.0646,606.67586 C 1169.5807,601.02679 1178.8367,587.46857 1184.6334,576.54651 C 1196.1717,554.80617 1199.1439,558.28895 1189.9722,582.80243 C 1181.2458,606.12603 1170.2473,620.98926 1154.0458,631.35328 C 1132.9131,644.87169 1123.9838,648.1771 1080.2767,658.66082 C 1032.0743,670.22277 1017.0261,676.98654 1000.0025,694.74185 C 992.65418,702.40595 986.64206,707.83872 986.64206,706.81473 L 986.64206,706.81476 z"
     id="path2402" />
  <path
     style="opacity:1;fill:#ffffff;fill-opacity:1;stroke:#ffffff;stroke-opacity:1"
     d="M 986.84085,706.30737 C 986.84085,702.49603 997.51871,683.69462 1004.1777,675.78088 C 1011.6315,666.92253 1020.4095,663.56733 1078.2896,647.4531 C 1139.8131,630.32456 1165.134,613.50386 1184.3879,576.9721 C 1196.2554,554.45502 1199.4777,557.42086 1190.171,582.29504 C 1181.7111,604.90622 1170.5046,620.28125 1154.9728,630.58596 C 1134.0045,644.49766 1120.5515,649.53374 1079.71,658.76034 C 1035.2948,668.79429 1016.4514,677.28599 999.60026,694.8613 C 992.58259,702.18064 986.84085,707.33133 986.84085,706.30734 L 986.84085,706.30737 z"
     id="path3308" />
  <path
     style="opacity:1;fill:#ffffff;fill-opacity:1"
     d=""
     id="path3310" />
</svg>
